{
  "accessors": [
    {
      "bufferView": 2,
      "componentType": 5126,
      "count": 772,
      "max": [
        0.4271644353866577,
        0.4271644353866577,
        1.1608632802963257
      ],
      "min": [
        -0.8117616176605225,
        -0.4271644353866577,
        -0.8837953805923462
      ],
      "type": "VEC3"
    },
    {
      "bufferView": 2,
      "byteOffset": 9264,
      "componentType": 5126,
      "count": 772,
      "max": [
        1.0,
        1.0,
        1.0
      ],
      "min": [
        -1.0,
        -1.0,
        -1.0
      ],
      "type": "VEC3"
    },
    {
      "bufferView": 3,
      "componentType": 5126,
      "count": 772,
      "max": [
        0.9999995231628418,
        0.9999982714653015,
        1.0,
        1.0
      ],
      "min": [
        -0.9999997615814209,
        -1.0,
        -0.9998345971107483,
        -1.0
      ],
      "type": "VEC4"
    },
    {
      "bufferView": 1,
      "componentType": 5126,
      "count": 772,
      "max": [
        0.9972397685050964,
        0.9959718585014343
      ],
      "min": [
        0.002759545110166073,
        0.0027095109689980745
      ],
      "type": "VEC2"
    },
    {
      "bufferView": 0,
      "componentType": 5125,
      "count": 2688,
      "type": "SCALAR"
    },
    {
      "bufferView": 2,
      "byteOffset": 18528,
      "componentType": 5126,
      "count": 250,
      "max": [
        0.5564839243888855,
        0.452299565076828,
        1.4972422122955322
      ],
      "min": [
        -0.452299565076828,
        -0.452299565076828,
        -0.9314097762107849
      ],
      "type": "VEC3"
    },
    {
      "bufferView": 2,
      "byteOffset": 21528,
      "componentType": 5126,
      "count": 250,
      "max": [
        1.0,
        1.0,
        1.0
      ],
      "min": [
        -1.0,
        -1.0,
        -1.0
      ],
      "type": "VEC3"
    },
    {
      "bufferView": 3,
      "byteOffset": 12352,
      "componentType": 5126,
      "count": 250,
      "max": [
        0.9659273624420166,
        0.9993532299995422,
        1.0,
        1.0
      ],
      "min": [
        -0.8464294075965881,
        -0.9995405673980713,
        -1.0,
        -1.0
      ],
      "type": "VEC4"
    },
    {
      "bufferView": 1,
      "byteOffset": 6176,
      "componentType": 5126,
      "count": 250,
      "max": [
        0.970386803150177,
        0.9856991767883301
      ],
      "min": [
        0.016688451170921326,
        0.0026716282591223717
      ],
      "type": "VEC2"
    },
    {
      "bufferView": 0,
      "byteOffset": 10752,
      "componentType": 5125,
      "count": 588,
      "type": "SCALAR"
    }
  ],
  "asset": {
    "extras": {
      "author": "zal3wa (https://sketchfab.com/zal3wa)",
      "license": "CC-BY-4.0 (http://creativecommons.org/licenses/by/4.0/)",
      "source": "https://sketchfab.com/3d-models/fire-extinguisher-low-poly-294a129bf4d245a8ab6b806837d92d97",
      "title": "Fire extinguisher - low poly"
    },
    "generator": "Sketchfab-12.67.0",
    "version": "2.0"
  },
  "bufferViews": [
    {
      "buffer": 0,
      "byteLength": 13104,
      "name": "floatBufferViews",
      "target": 34963
    },
    {
      "buffer": 0,
      "byteLength": 8176,
      "byteOffset": 13104,
      "byteStride": 8,
      "name": "floatBufferViews",
      "target": 34962
    },
    {
      "buffer": 0,
      "byteLength": 24528,
      "byteOffset": 21280,
      "byteStride": 12,
      "name": "floatBufferViews",
      "target": 34962
    },
    {
      "buffer": 0,
      "byteLength": 16352,
      "byteOffset": 45808,
      "byteStride": 16,
      "name": "floatBufferViews",
      "target": 34962
    }
  ],
  "buffers": [
    {
      "byteLength": 62160,
      "uri": "scene.bin"
    }
  ],
  "images": [
    {
      "uri": "textures/main-object_baseColor.png"
    },
    {
      "uri": "textures/main-object_metallicRoughness.png"
    },
    {
      "uri": "textures/main-object_normal.png"
    },
    {
      "uri": "textures/details_baseColor.png"
    },
    {
      "uri": "textures/details_metallicRoughness.png"
    },
    {
      "uri": "textures/details_normal.png"
    }
  ],
  "materials": [
    {
      "doubleSided": true,
      "name": "main-object",
      "normalTexture": {
        "index": 2
      },
      "pbrMetallicRoughness": {
        "baseColorTexture": {
          "index": 0
        },
        "metallicRoughnessTexture": {
          "index": 1
        }
      }
    },
    {
      "doubleSided": true,
      "name": "details",
      "normalTexture": {
        "index": 5
      },
      "pbrMetallicRoughness": {
        "baseColorTexture": {
          "index": 3
        },
        "metallicRoughnessTexture": {
          "index": 4
        }
      }
    }
  ],
  "meshes": [
    {
      "name": "main-cylinder_main-object_0",
      "primitives": [
        {
          "attributes": {
            "NORMAL": 1,
            "POSITION": 0,
            "TANGENT": 2,
            "TEXCOORD_0": 3
          },
          "indices": 4,
          "material": 0,
          "mode": 4
        }
      ]
    },
    {
      "name": "holder_details_0",
      "primitives": [
        {
          "attributes": {
            "NORMAL": 6,
            "POSITION": 5,
            "TANGENT": 7,
            "TEXCOORD_0": 8
          },
          "indices": 9,
          "material": 1,
          "mode": 4
        }
      ]
    }
  ],
  "nodes": [
    {
      "children": [
        1
      ],
      "matrix": [
        0.006115183075527941,
        -8.670291751520438e-20,
        0.0003904752270134093,
        0.0,
        0.0003904752270134093,
        1.3578434100498396e-18,
        -0.006115183075527941,
        0.0,
        0.0,
        0.006127636879682541,
        1.3606087100731614e-18,
        0.0,
        -0.02594182826578617,
        -3.365870725427684e-06,
        0.8133787512779236,
        1.0
      ],
      "name": "Sketchfab_model"
    },
    {
      "children": [
        2
      ],
      "matrix": [
        1.0,
        0.0,
        0.0,
        0.0,
        0.0,
        0.0,
        1.0,
        0.0,
        0.0,
        -1.0,
        0.0,
        0.0,
        0.0,
        0.0,
        0.0,
        1.0
      ],
      "name": "fire-extinguisher.fbx"
    },
    {
      "children": [
        3,
        5
      ],
      "name": "RootNode"
    },
    {
      "children": [
        4
      ],
      "matrix": [
        100.0,
        0.0,
        0.0,
        0.0,
        0.0,
        -1.629206793918314e-05,
        -99.99999999999868,
        0.0,
        0.0,
        99.99999999999868,
        -1.629206793918314e-05,
        0.0,
        0.0,
        0.0,
        0.0,
        1.0
      ],
      "name": "main-cylinder"
    },
    {
      "mesh": 0,
      "name": "main-cylinder_main-object_0"
    },
    {
      "children": [
        6
      ],
      "matrix": [
        100.0,
        0.0,
        0.0,
        0.0,
        0.0,
        -1.629206793918314e-05,
        -99.99999999999868,
        0.0,
        0.0,
        99.99999999999868,
        -1.629206793918314e-05,
        0.0,
        0.0,
        0.0,
        0.0,
        1.0
      ],
      "name": "holder"
    },
    {
      "mesh": 1,
      "name": "holder_details_0"
    }
  ],
  "samplers": [
    {
      "magFilter": 9729,
      "minFilter": 9987,
      "wrapS": 10497,
      "wrapT": 10497
    }
  ],
  "scene": 0,
  "scenes": [
    {
      "name": "Sketchfab_Scene",
      "nodes": [
        0
      ]
    }
  ],
  "textures": [
    {
      "sampler": 0,
      "source": 0
    },
    {
      "sampler": 0,
      "source": 1
    },
    {
      "sampler": 0,
      "source": 2
    },
    {
      "sampler": 0,
      "source": 3
    },
    {
      "sampler": 0,
      "source": 4
    },
    {
      "sampler": 0,
      "source": 5
    }
  ]
}
